<mxfile host="app.diagrams.net" agent="Mozilla/5.0 (Windows NT 10.0; Win64; x64) AppleWebKit/537.36 (KHTML, like Gecko) Chrome/133.0.0.0 Safari/537.36" version="26.0.16">
  <diagram name="Trang-1" id="Oqumd_XzipT04MsE4Zcd">
    <mxGraphModel dx="607" dy="536" grid="1" gridSize="10" guides="1" tooltips="1" connect="1" arrows="1" fold="1" page="1" pageScale="1" pageWidth="827" pageHeight="1169" math="0" shadow="0">
      <root>
        <mxCell id="0" />
        <mxCell id="1" parent="0" />
        <mxCell id="_Oj307VDDgL2Y4fi-IgT-1" value="" style="edgeStyle=orthogonalEdgeStyle;rounded=0;orthogonalLoop=1;jettySize=auto;html=1;exitX=0.5;exitY=1;exitDx=0;exitDy=0;" edge="1" parent="1" source="_Oj307VDDgL2Y4fi-IgT-2" target="_Oj307VDDgL2Y4fi-IgT-4">
          <mxGeometry relative="1" as="geometry">
            <mxPoint x="265" y="170" as="sourcePoint" />
          </mxGeometry>
        </mxCell>
        <mxCell id="_Oj307VDDgL2Y4fi-IgT-2" value="" style="ellipse;fillColor=strokeColor;html=1;" vertex="1" parent="1">
          <mxGeometry x="200" y="130" width="30" height="30" as="geometry" />
        </mxCell>
        <mxCell id="_Oj307VDDgL2Y4fi-IgT-3" value="Khách hàng" style="swimlane;whiteSpace=wrap;html=1;" vertex="1" parent="1">
          <mxGeometry x="80" y="80" width="270" height="1010" as="geometry" />
        </mxCell>
        <mxCell id="_Oj307VDDgL2Y4fi-IgT-4" value="Chọn &quot;Mở tài khoản tiết kiệm&quot;" style="rounded=1;whiteSpace=wrap;html=1;fontSize=12;glass=0;strokeWidth=1;shadow=0;" vertex="1" parent="_Oj307VDDgL2Y4fi-IgT-3">
          <mxGeometry x="75" y="130" width="120" height="40" as="geometry" />
        </mxCell>
        <mxCell id="_Oj307VDDgL2Y4fi-IgT-5" value="Chọn loại tài khoản tiết kiệm" style="rounded=1;whiteSpace=wrap;html=1;fontSize=12;glass=0;strokeWidth=1;shadow=0;" vertex="1" parent="_Oj307VDDgL2Y4fi-IgT-3">
          <mxGeometry x="75" y="250" width="120" height="40" as="geometry" />
        </mxCell>
        <mxCell id="_Oj307VDDgL2Y4fi-IgT-15" value="Nhập thông tin và xác nhận mở tài khoản." style="rounded=1;whiteSpace=wrap;html=1;fontSize=12;glass=0;strokeWidth=1;shadow=0;" vertex="1" parent="_Oj307VDDgL2Y4fi-IgT-3">
          <mxGeometry x="66.25" y="450" width="122.5" height="40" as="geometry" />
        </mxCell>
        <mxCell id="_Oj307VDDgL2Y4fi-IgT-35" value="Nhập OTP" style="rounded=1;whiteSpace=wrap;html=1;fontSize=12;glass=0;strokeWidth=1;shadow=0;" vertex="1" parent="_Oj307VDDgL2Y4fi-IgT-3">
          <mxGeometry x="97.5" y="720" width="75" height="20" as="geometry" />
        </mxCell>
        <mxCell id="_Oj307VDDgL2Y4fi-IgT-44" style="edgeStyle=orthogonalEdgeStyle;rounded=0;orthogonalLoop=1;jettySize=auto;html=1;" edge="1" parent="_Oj307VDDgL2Y4fi-IgT-3" source="_Oj307VDDgL2Y4fi-IgT-39" target="_Oj307VDDgL2Y4fi-IgT-15">
          <mxGeometry relative="1" as="geometry" />
        </mxCell>
        <mxCell id="_Oj307VDDgL2Y4fi-IgT-39" value="" style="rhombus;whiteSpace=wrap;html=1;" vertex="1" parent="_Oj307VDDgL2Y4fi-IgT-3">
          <mxGeometry x="115" y="380" width="25" height="30" as="geometry" />
        </mxCell>
        <mxCell id="_Oj307VDDgL2Y4fi-IgT-34" value="[không hợp lệ]" style="edgeStyle=orthogonalEdgeStyle;rounded=0;orthogonalLoop=1;jettySize=auto;html=1;entryX=1;entryY=0.5;entryDx=0;entryDy=0;" edge="1" parent="_Oj307VDDgL2Y4fi-IgT-3">
          <mxGeometry x="-0.6756" relative="1" as="geometry">
            <mxPoint x="417.54000000000013" y="535" as="sourcePoint" />
            <mxPoint x="140.04" y="395" as="targetPoint" />
            <Array as="points">
              <mxPoint x="490" y="535" />
              <mxPoint x="490" y="395" />
            </Array>
            <mxPoint as="offset" />
          </mxGeometry>
        </mxCell>
        <mxCell id="_Oj307VDDgL2Y4fi-IgT-60" style="edgeStyle=orthogonalEdgeStyle;rounded=0;orthogonalLoop=1;jettySize=auto;html=1;" edge="1" parent="_Oj307VDDgL2Y4fi-IgT-3" source="_Oj307VDDgL2Y4fi-IgT-58" target="_Oj307VDDgL2Y4fi-IgT-35">
          <mxGeometry relative="1" as="geometry" />
        </mxCell>
        <mxCell id="_Oj307VDDgL2Y4fi-IgT-58" value="" style="rhombus;whiteSpace=wrap;html=1;" vertex="1" parent="_Oj307VDDgL2Y4fi-IgT-3">
          <mxGeometry x="122.5" y="660" width="25" height="30" as="geometry" />
        </mxCell>
        <mxCell id="_Oj307VDDgL2Y4fi-IgT-6" value="Hệ thống" style="swimlane;whiteSpace=wrap;html=1;" vertex="1" parent="1">
          <mxGeometry x="350" y="80" width="270" height="1010" as="geometry" />
        </mxCell>
        <mxCell id="_Oj307VDDgL2Y4fi-IgT-7" value="Hiển thị danh sách các loại tài khoản tiết kiệm&amp;nbsp;" style="rounded=1;whiteSpace=wrap;html=1;fontSize=12;glass=0;strokeWidth=1;shadow=0;" vertex="1" parent="_Oj307VDDgL2Y4fi-IgT-6">
          <mxGeometry x="67.5" y="190" width="135" height="40" as="geometry" />
        </mxCell>
        <mxCell id="_Oj307VDDgL2Y4fi-IgT-8" value="Hiển thị giao diện nhập thông tin mở tài khoản" style="rounded=1;whiteSpace=wrap;html=1;fontSize=12;glass=0;strokeWidth=1;shadow=0;" vertex="1" parent="_Oj307VDDgL2Y4fi-IgT-6">
          <mxGeometry x="62.5" y="320" width="145" height="40" as="geometry" />
        </mxCell>
        <mxCell id="_Oj307VDDgL2Y4fi-IgT-9" value="" style="ellipse;whiteSpace=wrap;html=1;aspect=fixed;" vertex="1" parent="_Oj307VDDgL2Y4fi-IgT-6">
          <mxGeometry x="109.63" y="930" width="40" height="40" as="geometry" />
        </mxCell>
        <mxCell id="_Oj307VDDgL2Y4fi-IgT-11" value="" style="ellipse;fillColor=strokeColor;html=1;" vertex="1" parent="_Oj307VDDgL2Y4fi-IgT-6">
          <mxGeometry x="114.63" y="935" width="30" height="30" as="geometry" />
        </mxCell>
        <mxCell id="_Oj307VDDgL2Y4fi-IgT-18" value="" style="edgeStyle=segmentEdgeStyle;endArrow=classic;html=1;curved=0;rounded=0;endSize=8;startSize=8;exitX=0;exitY=0.5;exitDx=0;exitDy=0;entryX=0.5;entryY=0;entryDx=0;entryDy=0;" edge="1" parent="_Oj307VDDgL2Y4fi-IgT-6" target="_Oj307VDDgL2Y4fi-IgT-39">
          <mxGeometry width="50" height="50" relative="1" as="geometry">
            <mxPoint x="64" y="340" as="sourcePoint" />
            <mxPoint x="-139" y="380" as="targetPoint" />
          </mxGeometry>
        </mxCell>
        <mxCell id="_Oj307VDDgL2Y4fi-IgT-26" value="hiển thị xác nhận giao dịch." style="rounded=1;whiteSpace=wrap;html=1;fontSize=12;glass=0;strokeWidth=1;shadow=0;" vertex="1" parent="_Oj307VDDgL2Y4fi-IgT-6">
          <mxGeometry x="87.5" y="600" width="95" height="40" as="geometry" />
        </mxCell>
        <mxCell id="_Oj307VDDgL2Y4fi-IgT-33" value="[hợp lệ]" style="edgeStyle=orthogonalEdgeStyle;rounded=0;orthogonalLoop=1;jettySize=auto;html=1;entryX=0.5;entryY=0;entryDx=0;entryDy=0;" edge="1" parent="_Oj307VDDgL2Y4fi-IgT-6" source="_Oj307VDDgL2Y4fi-IgT-29" target="_Oj307VDDgL2Y4fi-IgT-26">
          <mxGeometry relative="1" as="geometry">
            <mxPoint x="67.52173913043498" y="590" as="targetPoint" />
          </mxGeometry>
        </mxCell>
        <mxCell id="_Oj307VDDgL2Y4fi-IgT-29" value="" style="rhombus;whiteSpace=wrap;html=1;" vertex="1" parent="_Oj307VDDgL2Y4fi-IgT-6">
          <mxGeometry x="122.5" y="520" width="25" height="30" as="geometry" />
        </mxCell>
        <mxCell id="_Oj307VDDgL2Y4fi-IgT-32" value="" style="edgeStyle=orthogonalEdgeStyle;rounded=0;orthogonalLoop=1;jettySize=auto;html=1;" edge="1" parent="_Oj307VDDgL2Y4fi-IgT-6" source="_Oj307VDDgL2Y4fi-IgT-30" target="_Oj307VDDgL2Y4fi-IgT-29">
          <mxGeometry relative="1" as="geometry" />
        </mxCell>
        <mxCell id="_Oj307VDDgL2Y4fi-IgT-30" value="Kiểm tra thông tin" style="rounded=1;whiteSpace=wrap;html=1;" vertex="1" parent="_Oj307VDDgL2Y4fi-IgT-6">
          <mxGeometry x="73.75" y="460" width="122.5" height="20" as="geometry" />
        </mxCell>
        <mxCell id="_Oj307VDDgL2Y4fi-IgT-50" value="" style="edgeStyle=orthogonalEdgeStyle;rounded=0;orthogonalLoop=1;jettySize=auto;html=1;entryX=0.5;entryY=0;entryDx=0;entryDy=0;" edge="1" parent="_Oj307VDDgL2Y4fi-IgT-6" source="_Oj307VDDgL2Y4fi-IgT-37" target="_Oj307VDDgL2Y4fi-IgT-52">
          <mxGeometry relative="1" as="geometry">
            <mxPoint x="130" y="750" as="targetPoint" />
          </mxGeometry>
        </mxCell>
        <mxCell id="_Oj307VDDgL2Y4fi-IgT-37" value="Kiểm tra OTP" style="rounded=1;whiteSpace=wrap;html=1;" vertex="1" parent="_Oj307VDDgL2Y4fi-IgT-6">
          <mxGeometry x="87.5" y="720" width="84.25" height="20" as="geometry" />
        </mxCell>
        <mxCell id="_Oj307VDDgL2Y4fi-IgT-56" value="" style="edgeStyle=orthogonalEdgeStyle;rounded=0;orthogonalLoop=1;jettySize=auto;html=1;" edge="1" parent="_Oj307VDDgL2Y4fi-IgT-6" source="_Oj307VDDgL2Y4fi-IgT-52" target="_Oj307VDDgL2Y4fi-IgT-53">
          <mxGeometry relative="1" as="geometry" />
        </mxCell>
        <mxCell id="_Oj307VDDgL2Y4fi-IgT-57" value="[hợp lệ]" style="edgeLabel;html=1;align=center;verticalAlign=middle;resizable=0;points=[];" vertex="1" connectable="0" parent="_Oj307VDDgL2Y4fi-IgT-56">
          <mxGeometry x="-0.2418" y="-4" relative="1" as="geometry">
            <mxPoint as="offset" />
          </mxGeometry>
        </mxCell>
        <mxCell id="_Oj307VDDgL2Y4fi-IgT-52" value="" style="rhombus;whiteSpace=wrap;html=1;" vertex="1" parent="_Oj307VDDgL2Y4fi-IgT-6">
          <mxGeometry x="117.13" y="760" width="25" height="30" as="geometry" />
        </mxCell>
        <mxCell id="_Oj307VDDgL2Y4fi-IgT-53" value="Thông báo thành công, hiển thị thông tin tài khoản tiết kiệm vừa tạo" style="rounded=1;whiteSpace=wrap;html=1;fontSize=12;glass=0;strokeWidth=1;shadow=0;" vertex="1" parent="_Oj307VDDgL2Y4fi-IgT-6">
          <mxGeometry x="55.69" y="830" width="147.87" height="50" as="geometry" />
        </mxCell>
        <mxCell id="_Oj307VDDgL2Y4fi-IgT-63" style="edgeStyle=orthogonalEdgeStyle;rounded=0;orthogonalLoop=1;jettySize=auto;html=1;entryX=0.5;entryY=0;entryDx=0;entryDy=0;" edge="1" parent="_Oj307VDDgL2Y4fi-IgT-6" source="_Oj307VDDgL2Y4fi-IgT-53" target="_Oj307VDDgL2Y4fi-IgT-9">
          <mxGeometry relative="1" as="geometry" />
        </mxCell>
        <mxCell id="_Oj307VDDgL2Y4fi-IgT-12" value="" style="edgeStyle=segmentEdgeStyle;endArrow=classic;html=1;curved=0;rounded=0;endSize=8;startSize=8;entryX=0.5;entryY=0;entryDx=0;entryDy=0;" edge="1" parent="1" target="_Oj307VDDgL2Y4fi-IgT-7">
          <mxGeometry width="50" height="50" relative="1" as="geometry">
            <mxPoint x="280" y="230" as="sourcePoint" />
            <mxPoint x="380" y="280" as="targetPoint" />
          </mxGeometry>
        </mxCell>
        <mxCell id="_Oj307VDDgL2Y4fi-IgT-13" value="" style="edgeStyle=segmentEdgeStyle;endArrow=classic;html=1;curved=0;rounded=0;endSize=8;startSize=8;exitX=0;exitY=0.5;exitDx=0;exitDy=0;entryX=0.5;entryY=0;entryDx=0;entryDy=0;" edge="1" parent="1" source="_Oj307VDDgL2Y4fi-IgT-7" target="_Oj307VDDgL2Y4fi-IgT-5">
          <mxGeometry width="50" height="50" relative="1" as="geometry">
            <mxPoint x="330" y="330" as="sourcePoint" />
            <mxPoint x="380" y="280" as="targetPoint" />
          </mxGeometry>
        </mxCell>
        <mxCell id="_Oj307VDDgL2Y4fi-IgT-14" value="" style="edgeStyle=segmentEdgeStyle;endArrow=classic;html=1;curved=0;rounded=0;endSize=8;startSize=8;exitX=1;exitY=0.5;exitDx=0;exitDy=0;entryX=0.5;entryY=0;entryDx=0;entryDy=0;" edge="1" parent="1" source="_Oj307VDDgL2Y4fi-IgT-5" target="_Oj307VDDgL2Y4fi-IgT-8">
          <mxGeometry width="50" height="50" relative="1" as="geometry">
            <mxPoint x="330" y="330" as="sourcePoint" />
            <mxPoint x="380" y="280" as="targetPoint" />
          </mxGeometry>
        </mxCell>
        <mxCell id="_Oj307VDDgL2Y4fi-IgT-19" value="" style="edgeStyle=segmentEdgeStyle;endArrow=classic;html=1;curved=0;rounded=0;endSize=8;startSize=8;" edge="1" parent="1" source="_Oj307VDDgL2Y4fi-IgT-15" target="_Oj307VDDgL2Y4fi-IgT-30">
          <mxGeometry width="50" height="50" relative="1" as="geometry">
            <mxPoint x="285" y="360" as="sourcePoint" />
            <mxPoint x="485.0000000000001" y="530" as="targetPoint" />
          </mxGeometry>
        </mxCell>
        <mxCell id="_Oj307VDDgL2Y4fi-IgT-38" value="" style="edgeStyle=segmentEdgeStyle;endArrow=classic;html=1;curved=0;rounded=0;endSize=8;startSize=8;" edge="1" parent="1" target="_Oj307VDDgL2Y4fi-IgT-37" source="_Oj307VDDgL2Y4fi-IgT-35">
          <mxGeometry width="50" height="50" relative="1" as="geometry">
            <mxPoint x="250" y="750" as="sourcePoint" />
            <mxPoint x="457.0000000000001" y="780" as="targetPoint" />
          </mxGeometry>
        </mxCell>
        <mxCell id="_Oj307VDDgL2Y4fi-IgT-59" style="edgeStyle=orthogonalEdgeStyle;rounded=0;orthogonalLoop=1;jettySize=auto;html=1;" edge="1" parent="1" source="_Oj307VDDgL2Y4fi-IgT-26" target="_Oj307VDDgL2Y4fi-IgT-58">
          <mxGeometry relative="1" as="geometry" />
        </mxCell>
        <mxCell id="_Oj307VDDgL2Y4fi-IgT-61" style="edgeStyle=orthogonalEdgeStyle;rounded=0;orthogonalLoop=1;jettySize=auto;html=1;entryX=1;entryY=0.5;entryDx=0;entryDy=0;" edge="1" parent="1" source="_Oj307VDDgL2Y4fi-IgT-53" target="_Oj307VDDgL2Y4fi-IgT-58">
          <mxGeometry relative="1" as="geometry">
            <Array as="points">
              <mxPoint x="590" y="930" />
              <mxPoint x="590" y="755" />
            </Array>
          </mxGeometry>
        </mxCell>
        <mxCell id="_Oj307VDDgL2Y4fi-IgT-62" value="[không hợp lệ]" style="edgeLabel;html=1;align=center;verticalAlign=middle;resizable=0;points=[];" vertex="1" connectable="0" parent="_Oj307VDDgL2Y4fi-IgT-61">
          <mxGeometry x="-0.6349" y="3" relative="1" as="geometry">
            <mxPoint x="-7" as="offset" />
          </mxGeometry>
        </mxCell>
      </root>
    </mxGraphModel>
  </diagram>
</mxfile>
